<mxfile host="app.diagrams.net" agent="Mozilla/5.0 (Macintosh; Intel Mac OS X 10_15_7) AppleWebKit/537.36 (KHTML, like Gecko) Chrome/134.0.0.0 Safari/537.36" version="27.1.1">
  <diagram id="a1m_PUGYuHNh4Ak9G8i6" name="Page-1">
    <mxGraphModel dx="2788" dy="724" grid="1" gridSize="10" guides="1" tooltips="1" connect="1" arrows="1" fold="1" page="1" pageScale="1" pageWidth="1600" pageHeight="900" math="0" shadow="0">
      <root>
        <mxCell id="0" />
        <mxCell id="1" parent="0" />
        <mxCell id="Q7NYyZmWe51MbhSKl3cX-113" value="" style="rounded=0;whiteSpace=wrap;html=1;" parent="1" vertex="1">
          <mxGeometry x="-1600" width="2120" height="1040" as="geometry" />
        </mxCell>
        <mxCell id="3UaBTVDe8wQeoS43e0Al-54" value="&lt;&lt; enum &gt;&gt;&#xa;InputType" style="swimlane;fontStyle=3;align=center;verticalAlign=top;childLayout=stackLayout;horizontal=1;startSize=40;horizontalStack=0;resizeParent=1;resizeParentMax=0;resizeLast=0;collapsible=1;marginBottom=0;hachureGap=4;pointerEvents=0;sketch=0;strokeColor=#82b366;fillColor=#d5e8d4;gradientColor=#97d077;" parent="1" vertex="1">
          <mxGeometry x="120" y="442" width="320" height="48" as="geometry" />
        </mxCell>
        <mxCell id="3UaBTVDe8wQeoS43e0Al-56" value="" style="line;strokeWidth=1;fillColor=#d5e8d4;align=left;verticalAlign=middle;spacingTop=-1;spacingLeft=3;spacingRight=3;rotatable=0;labelPosition=right;points=[];portConstraint=eastwest;strokeColor=#82b366;gradientColor=#97d077;" parent="3UaBTVDe8wQeoS43e0Al-54" vertex="1">
          <mxGeometry y="40" width="320" height="8" as="geometry" />
        </mxCell>
        <mxCell id="3UaBTVDe8wQeoS43e0Al-146" value="ArtPanel" style="swimlane;fontStyle=1;align=center;verticalAlign=top;childLayout=stackLayout;horizontal=1;startSize=26;horizontalStack=0;resizeParent=1;resizeParentMax=0;resizeLast=0;collapsible=1;marginBottom=0;hachureGap=4;pointerEvents=0;sketch=0;strokeColor=#82b366;fillColor=#d5e8d4;gradientColor=#97d077;" parent="1" vertex="1">
          <mxGeometry x="-200" y="682" width="320" height="120" as="geometry" />
        </mxCell>
        <mxCell id="3UaBTVDe8wQeoS43e0Al-147" value="- frame: JFrame&#xa;- ep: EmpathyPanel&#xa;- image: BufferedImage" style="text;strokeColor=none;fillColor=none;align=left;verticalAlign=top;spacingLeft=4;spacingRight=4;overflow=hidden;rotatable=0;points=[[0,0.5],[1,0.5]];portConstraint=eastwest;fontColor=#000000;" parent="3UaBTVDe8wQeoS43e0Al-146" vertex="1">
          <mxGeometry y="26" width="320" height="54" as="geometry" />
        </mxCell>
        <mxCell id="3UaBTVDe8wQeoS43e0Al-148" value="" style="line;strokeWidth=1;fillColor=#d5e8d4;align=left;verticalAlign=middle;spacingTop=-1;spacingLeft=3;spacingRight=3;rotatable=0;labelPosition=right;points=[];portConstraint=eastwest;strokeColor=#82b366;gradientColor=#97d077;" parent="3UaBTVDe8wQeoS43e0Al-146" vertex="1">
          <mxGeometry y="80" width="320" height="8" as="geometry" />
        </mxCell>
        <mxCell id="3UaBTVDe8wQeoS43e0Al-149" value="+ propertyChange()" style="text;strokeColor=none;fillColor=none;align=left;verticalAlign=top;spacingLeft=4;spacingRight=4;overflow=hidden;rotatable=0;points=[[0,0.5],[1,0.5]];portConstraint=eastwest;fontColor=#000000;" parent="3UaBTVDe8wQeoS43e0Al-146" vertex="1">
          <mxGeometry y="88" width="320" height="32" as="geometry" />
        </mxCell>
        <mxCell id="iRfioQm72hwA-FkyxaqL-3" style="rounded=0;orthogonalLoop=1;jettySize=auto;html=1;endSize=13;endArrow=block;endFill=0;dashed=1;strokeWidth=1;edgeStyle=orthogonalEdgeStyle;dashPattern=8 8;" parent="1" source="3UaBTVDe8wQeoS43e0Al-146" target="jbrCTatAsTJZQeUJgzJw-40" edge="1">
          <mxGeometry relative="1" as="geometry">
            <mxPoint x="800" y="-50.043478260869506" as="sourcePoint" />
            <mxPoint x="1370" y="323" as="targetPoint" />
            <Array as="points">
              <mxPoint x="-400" y="732" />
            </Array>
          </mxGeometry>
        </mxCell>
        <mxCell id="iRfioQm72hwA-FkyxaqL-5" value="" style="rounded=0;orthogonalLoop=1;jettySize=auto;html=1;endArrow=open;endFill=0;endSize=16;edgeStyle=orthogonalEdgeStyle;" parent="1" source="Q7NYyZmWe51MbhSKl3cX-1" target="jbrCTatAsTJZQeUJgzJw-40" edge="1">
          <mxGeometry relative="1" as="geometry">
            <mxPoint x="1260" y="531" as="targetPoint" />
            <Array as="points">
              <mxPoint x="-280" y="512" />
              <mxPoint x="-280" y="590" />
            </Array>
          </mxGeometry>
        </mxCell>
        <mxCell id="elMguTT_wr_vLUgwcF6g-1" value="Math" style="swimlane;fontStyle=1;align=center;verticalAlign=top;childLayout=stackLayout;horizontal=1;startSize=26;horizontalStack=0;resizeParent=1;resizeParentMax=0;resizeLast=0;collapsible=1;marginBottom=0;hachureGap=4;pointerEvents=0;sketch=0;strokeColor=#6c8ebf;fillColor=#dae8fc;" parent="1" vertex="1">
          <mxGeometry x="-360" y="962" width="160" height="34" as="geometry" />
        </mxCell>
        <mxCell id="elMguTT_wr_vLUgwcF6g-2" value="" style="line;strokeWidth=1;fillColor=none;align=left;verticalAlign=middle;spacingTop=-1;spacingLeft=3;spacingRight=3;rotatable=0;labelPosition=right;points=[];portConstraint=eastwest;strokeColor=#6C8EBF;fontColor=#5AA9E6;" parent="elMguTT_wr_vLUgwcF6g-1" vertex="1">
          <mxGeometry y="26" width="160" height="8" as="geometry" />
        </mxCell>
        <mxCell id="jbrCTatAsTJZQeUJgzJw-40" value="«interface»&lt;br&gt;&lt;b&gt;PropertyChangeListener&lt;/b&gt;" style="html=1;whiteSpace=wrap;fillColor=#dae8fc;strokeColor=#6c8ebf;" parent="1" vertex="1">
          <mxGeometry x="-480" y="562" width="160" height="56" as="geometry" />
        </mxCell>
        <mxCell id="Q7NYyZmWe51MbhSKl3cX-1" value="JPanel" style="swimlane;fontStyle=1;align=center;verticalAlign=top;childLayout=stackLayout;horizontal=1;startSize=26;horizontalStack=0;resizeParent=1;resizeParentMax=0;resizeLast=0;collapsible=1;marginBottom=0;hachureGap=4;pointerEvents=0;sketch=0;strokeColor=#6c8ebf;fillColor=#dae8fc;" parent="1" vertex="1">
          <mxGeometry x="-240" y="482" width="160" height="60" as="geometry" />
        </mxCell>
        <mxCell id="Q7NYyZmWe51MbhSKl3cX-2" value="" style="line;strokeWidth=1;fillColor=none;align=left;verticalAlign=middle;spacingTop=-1;spacingLeft=3;spacingRight=3;rotatable=0;labelPosition=right;points=[];portConstraint=eastwest;strokeColor=#6C8EBF;fontColor=#5AA9E6;" parent="Q7NYyZmWe51MbhSKl3cX-1" vertex="1">
          <mxGeometry y="26" width="160" height="8" as="geometry" />
        </mxCell>
        <mxCell id="Q7NYyZmWe51MbhSKl3cX-3" value="+firePropertyChange()" style="text;strokeColor=none;fillColor=none;align=left;verticalAlign=top;spacingLeft=4;spacingRight=4;overflow=hidden;rotatable=0;points=[[0,0.5],[1,0.5]];portConstraint=eastwest;fontColor=#000000;" parent="Q7NYyZmWe51MbhSKl3cX-1" vertex="1">
          <mxGeometry y="34" width="160" height="26" as="geometry" />
        </mxCell>
        <mxCell id="Q7NYyZmWe51MbhSKl3cX-4" style="rounded=0;orthogonalLoop=1;jettySize=auto;html=1;endArrow=block;endFill=0;endSize=16;strokeWidth=1;edgeStyle=orthogonalEdgeStyle;" parent="1" source="3UaBTVDe8wQeoS43e0Al-146" target="Q7NYyZmWe51MbhSKl3cX-1" edge="1">
          <mxGeometry relative="1" as="geometry">
            <mxPoint x="850" y="-8" as="sourcePoint" />
            <mxPoint x="840" y="-138" as="targetPoint" />
            <Array as="points">
              <mxPoint x="-40" y="442" />
              <mxPoint x="-160" y="442" />
            </Array>
          </mxGeometry>
        </mxCell>
        <mxCell id="Q7NYyZmWe51MbhSKl3cX-5" value="Bracelet" style="swimlane;fontStyle=1;align=center;verticalAlign=top;childLayout=stackLayout;horizontal=1;startSize=26;horizontalStack=0;resizeParent=1;resizeParentMax=0;resizeLast=0;collapsible=1;marginBottom=0;hachureGap=4;pointerEvents=0;sketch=0;strokeColor=#b85450;fillColor=#f8cecc;gradientColor=#ea6b66;" parent="1" vertex="1">
          <mxGeometry x="-960" y="522" width="320" height="230" as="geometry" />
        </mxCell>
        <mxCell id="Q7NYyZmWe51MbhSKl3cX-6" value="- colorSet: Color[]&#xa;- colorOrder: int[]&#xa;- knotMatrix: int[][]" style="text;strokeColor=none;fillColor=none;align=left;verticalAlign=top;spacingLeft=4;spacingRight=4;overflow=hidden;rotatable=0;points=[[0,0.5],[1,0.5]];portConstraint=eastwest;fontColor=#000000;" parent="Q7NYyZmWe51MbhSKl3cX-5" vertex="1">
          <mxGeometry y="26" width="320" height="54" as="geometry" />
        </mxCell>
        <mxCell id="Q7NYyZmWe51MbhSKl3cX-7" value="" style="line;strokeWidth=1;fillColor=#f8cecc;align=left;verticalAlign=middle;spacingTop=-1;spacingLeft=3;spacingRight=3;rotatable=0;labelPosition=right;points=[];portConstraint=eastwest;strokeColor=#b85450;gradientColor=#ea6b66;" parent="Q7NYyZmWe51MbhSKl3cX-5" vertex="1">
          <mxGeometry y="80" width="320" height="8" as="geometry" />
        </mxCell>
        <mxCell id="Q7NYyZmWe51MbhSKl3cX-8" value="+ setColors()&#xa;+ buildBracelet()&#xa;+ colorOrderValue(): int&#xa;+ incrementKnot()&#xa;+ decrementKnot()&#xa;+ getColorInd(): int&#xa;+ getColor(): Color&#xa;+ getType(): int&#xa;+ getDir(): KnotType" style="text;strokeColor=none;fillColor=none;align=left;verticalAlign=top;spacingLeft=4;spacingRight=4;overflow=hidden;rotatable=0;points=[[0,0.5],[1,0.5]];portConstraint=eastwest;fontColor=#000000;" parent="Q7NYyZmWe51MbhSKl3cX-5" vertex="1">
          <mxGeometry y="88" width="320" height="142" as="geometry" />
        </mxCell>
        <mxCell id="Q7NYyZmWe51MbhSKl3cX-9" value="BraceletPanel" style="swimlane;fontStyle=1;align=center;verticalAlign=top;childLayout=stackLayout;horizontal=1;startSize=26;horizontalStack=0;resizeParent=1;resizeParentMax=0;resizeLast=0;collapsible=1;marginBottom=0;hachureGap=4;pointerEvents=0;sketch=0;strokeColor=#d79b00;fillColor=#ffcd28;gradientColor=#ffa500;" parent="1" vertex="1">
          <mxGeometry x="-760" y="322" width="320" height="140" as="geometry" />
        </mxCell>
        <mxCell id="Q7NYyZmWe51MbhSKl3cX-10" value="- color: String" style="text;strokeColor=none;fillColor=none;align=left;verticalAlign=top;spacingLeft=4;spacingRight=4;overflow=hidden;rotatable=0;points=[[0,0.5],[1,0.5]];portConstraint=eastwest;fontColor=#000000;" parent="Q7NYyZmWe51MbhSKl3cX-9" vertex="1">
          <mxGeometry y="26" width="320" height="34" as="geometry" />
        </mxCell>
        <mxCell id="Q7NYyZmWe51MbhSKl3cX-11" value="" style="line;strokeWidth=1;fillColor=#ffcd28;align=left;verticalAlign=middle;spacingTop=-1;spacingLeft=3;spacingRight=3;rotatable=0;labelPosition=right;points=[];portConstraint=eastwest;strokeColor=#d79b00;gradientColor=#ffa500;" parent="Q7NYyZmWe51MbhSKl3cX-9" vertex="1">
          <mxGeometry y="60" width="320" height="8" as="geometry" />
        </mxCell>
        <mxCell id="Q7NYyZmWe51MbhSKl3cX-12" value="- drawPreview()&#xa;+ mouseClicked()&#xa;+ mouseEntered()&#xa;+ propertyChange()" style="text;strokeColor=none;fillColor=none;align=left;verticalAlign=top;spacingLeft=4;spacingRight=4;overflow=hidden;rotatable=0;points=[[0,0.5],[1,0.5]];portConstraint=eastwest;fontColor=#000000;" parent="Q7NYyZmWe51MbhSKl3cX-9" vertex="1">
          <mxGeometry y="68" width="320" height="72" as="geometry" />
        </mxCell>
        <mxCell id="Q7NYyZmWe51MbhSKl3cX-13" value="ImgProcessor" style="swimlane;fontStyle=1;align=center;verticalAlign=top;childLayout=stackLayout;horizontal=1;startSize=26;horizontalStack=0;resizeParent=1;resizeParentMax=0;resizeLast=0;collapsible=1;marginBottom=0;hachureGap=4;pointerEvents=0;sketch=0;strokeColor=#d6b656;fillColor=#fff2cc;gradientColor=#ffd966;" parent="1" vertex="1">
          <mxGeometry x="80" y="842" width="320" height="140" as="geometry" />
        </mxCell>
        <mxCell id="Q7NYyZmWe51MbhSKl3cX-14" value="- image: BufferedImage&#xa;- COLORSET: Color[]" style="text;strokeColor=none;fillColor=none;align=left;verticalAlign=top;spacingLeft=4;spacingRight=4;overflow=hidden;rotatable=0;points=[[0,0.5],[1,0.5]];portConstraint=eastwest;fontColor=#000000;" parent="Q7NYyZmWe51MbhSKl3cX-13" vertex="1">
          <mxGeometry y="26" width="320" height="34" as="geometry" />
        </mxCell>
        <mxCell id="Q7NYyZmWe51MbhSKl3cX-15" value="" style="line;strokeWidth=1;fillColor=#fff2cc;align=left;verticalAlign=middle;spacingTop=-1;spacingLeft=3;spacingRight=3;rotatable=0;labelPosition=right;points=[];portConstraint=eastwest;strokeColor=#d6b656;gradientColor=#ffd966;" parent="Q7NYyZmWe51MbhSKl3cX-13" vertex="1">
          <mxGeometry y="60" width="320" height="8" as="geometry" />
        </mxCell>
        <mxCell id="Q7NYyZmWe51MbhSKl3cX-16" value="+ scale(): BufferedImage&#xa;+ medianCut()&#xa;+ process(): BufferedImage&#xa;- createLookup(): Color" style="text;strokeColor=none;fillColor=none;align=left;verticalAlign=top;spacingLeft=4;spacingRight=4;overflow=hidden;rotatable=0;points=[[0,0.5],[1,0.5]];portConstraint=eastwest;fontColor=#000000;" parent="Q7NYyZmWe51MbhSKl3cX-13" vertex="1">
          <mxGeometry y="68" width="320" height="72" as="geometry" />
        </mxCell>
        <mxCell id="Q7NYyZmWe51MbhSKl3cX-17" value="InputPanel" style="swimlane;fontStyle=1;align=center;verticalAlign=top;childLayout=stackLayout;horizontal=1;startSize=26;horizontalStack=0;resizeParent=1;resizeParentMax=0;resizeLast=0;collapsible=1;marginBottom=0;hachureGap=4;pointerEvents=0;sketch=0;strokeColor=#82b366;fillColor=#d5e8d4;gradientColor=#97d077;" parent="1" vertex="1">
          <mxGeometry x="120" y="286" width="320" height="88" as="geometry" />
        </mxCell>
        <mxCell id="Q7NYyZmWe51MbhSKl3cX-18" value="textField: JTextField&#xa;uploadButton: JButton&#xa;continueButton: JButton" style="text;strokeColor=none;fillColor=none;align=left;verticalAlign=top;spacingLeft=4;spacingRight=4;overflow=hidden;rotatable=0;points=[[0,0.5],[1,0.5]];portConstraint=eastwest;fontColor=#000000;" parent="Q7NYyZmWe51MbhSKl3cX-17" vertex="1">
          <mxGeometry y="26" width="320" height="54" as="geometry" />
        </mxCell>
        <mxCell id="Q7NYyZmWe51MbhSKl3cX-19" value="" style="line;strokeWidth=1;fillColor=#d5e8d4;align=left;verticalAlign=middle;spacingTop=-1;spacingLeft=3;spacingRight=3;rotatable=0;labelPosition=right;points=[];portConstraint=eastwest;strokeColor=#82b366;gradientColor=#97d077;" parent="Q7NYyZmWe51MbhSKl3cX-17" vertex="1">
          <mxGeometry y="80" width="320" height="8" as="geometry" />
        </mxCell>
        <mxCell id="Q7NYyZmWe51MbhSKl3cX-21" value="Main" style="swimlane;fontStyle=1;align=center;verticalAlign=top;childLayout=stackLayout;horizontal=1;startSize=26;horizontalStack=0;resizeParent=1;resizeParentMax=0;resizeLast=0;collapsible=1;marginBottom=0;hachureGap=4;pointerEvents=0;sketch=0;strokeColor=#82b366;fillColor=#d5e8d4;gradientColor=#97d077;" parent="1" vertex="1">
          <mxGeometry x="-320" y="40" width="320" height="110" as="geometry" />
        </mxCell>
        <mxCell id="Q7NYyZmWe51MbhSKl3cX-22" value="jFrame: JFrame&#xa;mainPanel:JPanel" style="text;strokeColor=none;fillColor=none;align=left;verticalAlign=top;spacingLeft=4;spacingRight=4;overflow=hidden;rotatable=0;points=[[0,0.5],[1,0.5]];portConstraint=eastwest;fontColor=#000000;" parent="Q7NYyZmWe51MbhSKl3cX-21" vertex="1">
          <mxGeometry y="26" width="320" height="34" as="geometry" />
        </mxCell>
        <mxCell id="Q7NYyZmWe51MbhSKl3cX-23" value="" style="line;strokeWidth=1;fillColor=#d5e8d4;align=left;verticalAlign=middle;spacingTop=-1;spacingLeft=3;spacingRight=3;rotatable=0;labelPosition=right;points=[];portConstraint=eastwest;strokeColor=#82b366;gradientColor=#97d077;" parent="Q7NYyZmWe51MbhSKl3cX-21" vertex="1">
          <mxGeometry y="60" width="320" height="8" as="geometry" />
        </mxCell>
        <mxCell id="Q7NYyZmWe51MbhSKl3cX-24" value="&lt;u&gt;+ main()&lt;/u&gt;&lt;br&gt;&lt;u&gt;+ getTestBracelet()&lt;/u&gt;: Bracelet" style="text;strokeColor=none;fillColor=none;align=left;verticalAlign=top;spacingLeft=4;spacingRight=4;overflow=hidden;rotatable=0;points=[[0,0.5],[1,0.5]];portConstraint=eastwest;fontColor=#000000;html=1;" parent="Q7NYyZmWe51MbhSKl3cX-21" vertex="1">
          <mxGeometry y="68" width="320" height="42" as="geometry" />
        </mxCell>
        <mxCell id="Q7NYyZmWe51MbhSKl3cX-25" value="SimAnnealer" style="swimlane;fontStyle=1;align=center;verticalAlign=top;childLayout=stackLayout;horizontal=1;startSize=26;horizontalStack=0;resizeParent=1;resizeParentMax=0;resizeLast=0;collapsible=1;marginBottom=0;hachureGap=4;pointerEvents=0;sketch=0;strokeColor=#d79b00;fillColor=#ffcd28;gradientColor=#ffa500;" parent="1" vertex="1">
          <mxGeometry x="-720" y="802" width="320" height="190" as="geometry" />
        </mxCell>
        <mxCell id="Q7NYyZmWe51MbhSKl3cX-26" value="image: BufferedImage&#xa;colorSet: Color[]&#xa;ideals: int[][]" style="text;strokeColor=none;fillColor=none;align=left;verticalAlign=top;spacingLeft=4;spacingRight=4;overflow=hidden;rotatable=0;points=[[0,0.5],[1,0.5]];portConstraint=eastwest;fontColor=#000000;" parent="Q7NYyZmWe51MbhSKl3cX-25" vertex="1">
          <mxGeometry y="26" width="320" height="54" as="geometry" />
        </mxCell>
        <mxCell id="Q7NYyZmWe51MbhSKl3cX-27" value="" style="line;strokeWidth=1;fillColor=#ffcd28;align=left;verticalAlign=middle;spacingTop=-1;spacingLeft=3;spacingRight=3;rotatable=0;labelPosition=right;points=[];portConstraint=eastwest;strokeColor=#d79b00;gradientColor=#ffa500;" parent="Q7NYyZmWe51MbhSKl3cX-25" vertex="1">
          <mxGeometry y="80" width="320" height="8" as="geometry" />
        </mxCell>
        <mxCell id="Q7NYyZmWe51MbhSKl3cX-28" value="+ starter()&#xa;+ prepIdeals()&#xa;+ getClosest(): int&#xa;+ score(): int&#xa;+ anneal()&#xa;+ makeBracelet()" style="text;strokeColor=none;fillColor=none;align=left;verticalAlign=top;spacingLeft=4;spacingRight=4;overflow=hidden;rotatable=0;points=[[0,0.5],[1,0.5]];portConstraint=eastwest;fontColor=#000000;" parent="Q7NYyZmWe51MbhSKl3cX-25" vertex="1">
          <mxGeometry y="88" width="320" height="102" as="geometry" />
        </mxCell>
        <mxCell id="Q7NYyZmWe51MbhSKl3cX-29" value="StringKnot" style="swimlane;fontStyle=1;align=center;verticalAlign=top;childLayout=stackLayout;horizontal=1;startSize=26;horizontalStack=0;resizeParent=1;resizeParentMax=0;resizeLast=0;collapsible=1;marginBottom=0;hachureGap=4;pointerEvents=0;sketch=0;strokeColor=#b85450;fillColor=#f8cecc;gradientColor=#ea6b66;" parent="1" vertex="1">
          <mxGeometry x="-1560" y="437" width="320" height="68" as="geometry" />
        </mxCell>
        <mxCell id="Q7NYyZmWe51MbhSKl3cX-30" value="- leftString: int&#xa;- rightString: int" style="text;strokeColor=none;fillColor=none;align=left;verticalAlign=top;spacingLeft=4;spacingRight=4;overflow=hidden;rotatable=0;points=[[0,0.5],[1,0.5]];portConstraint=eastwest;fontColor=#000000;" parent="Q7NYyZmWe51MbhSKl3cX-29" vertex="1">
          <mxGeometry y="26" width="320" height="34" as="geometry" />
        </mxCell>
        <mxCell id="Q7NYyZmWe51MbhSKl3cX-31" value="" style="line;strokeWidth=1;fillColor=#f8cecc;align=left;verticalAlign=middle;spacingTop=-1;spacingLeft=3;spacingRight=3;rotatable=0;labelPosition=right;points=[];portConstraint=eastwest;strokeColor=#b85450;gradientColor=#ea6b66;" parent="Q7NYyZmWe51MbhSKl3cX-29" vertex="1">
          <mxGeometry y="60" width="320" height="8" as="geometry" />
        </mxCell>
        <mxCell id="Q7NYyZmWe51MbhSKl3cX-33" value="StringStraight" style="swimlane;fontStyle=1;align=center;verticalAlign=top;childLayout=stackLayout;horizontal=1;startSize=26;horizontalStack=0;resizeParent=1;resizeParentMax=0;resizeLast=0;collapsible=1;marginBottom=0;hachureGap=4;pointerEvents=0;sketch=0;strokeColor=#b85450;fillColor=#f8cecc;gradientColor=#ea6b66;" parent="1" vertex="1">
          <mxGeometry x="-1360" y="197" width="320" height="68" as="geometry" />
        </mxCell>
        <mxCell id="Q7NYyZmWe51MbhSKl3cX-34" value="- color: int&#xa;- ISRIGHTEDGE: bool" style="text;strokeColor=none;fillColor=none;align=left;verticalAlign=top;spacingLeft=4;spacingRight=4;overflow=hidden;rotatable=0;points=[[0,0.5],[1,0.5]];portConstraint=eastwest;fontColor=#000000;" parent="Q7NYyZmWe51MbhSKl3cX-33" vertex="1">
          <mxGeometry y="26" width="320" height="34" as="geometry" />
        </mxCell>
        <mxCell id="Q7NYyZmWe51MbhSKl3cX-35" value="" style="line;strokeWidth=1;fillColor=#f8cecc;align=left;verticalAlign=middle;spacingTop=-1;spacingLeft=3;spacingRight=3;rotatable=0;labelPosition=right;points=[];portConstraint=eastwest;strokeColor=#b85450;gradientColor=#ea6b66;" parent="Q7NYyZmWe51MbhSKl3cX-33" vertex="1">
          <mxGeometry y="60" width="320" height="8" as="geometry" />
        </mxCell>
        <mxCell id="Q7NYyZmWe51MbhSKl3cX-49" value="&lt;&lt; abstract &gt;&gt;&#xa;StringNode" style="swimlane;fontStyle=3;align=center;verticalAlign=top;childLayout=stackLayout;horizontal=1;startSize=40;horizontalStack=0;resizeParent=1;resizeParentMax=0;resizeLast=0;collapsible=1;marginBottom=0;hachureGap=4;pointerEvents=0;sketch=0;strokeColor=#b85450;fillColor=#f8cecc;gradientColor=#ea6b66;" parent="1" vertex="1">
          <mxGeometry x="-1160" y="317.00000000000006" width="320" height="170" as="geometry" />
        </mxCell>
        <mxCell id="Q7NYyZmWe51MbhSKl3cX-51" value="" style="line;strokeWidth=1;fillColor=#f8cecc;align=left;verticalAlign=middle;spacingTop=-1;spacingLeft=3;spacingRight=3;rotatable=0;labelPosition=right;points=[];portConstraint=eastwest;strokeColor=#b85450;gradientColor=#ea6b66;" parent="Q7NYyZmWe51MbhSKl3cX-49" vertex="1">
          <mxGeometry y="40" width="320" height="8" as="geometry" />
        </mxCell>
        <mxCell id="Q7NYyZmWe51MbhSKl3cX-52" value="+ getType(): int&#xa;+ getDir(): KnotType&#xa;+ setString()&#xa;+ setChild()&#xa;+ getColor(): int&#xa;+ getStringOut(): int&#xa;+ incrementDir()&#xa;+ propagate(): int" style="text;strokeColor=none;fillColor=none;align=left;verticalAlign=top;spacingLeft=4;spacingRight=4;overflow=hidden;rotatable=0;points=[[0,0.5],[1,0.5]];portConstraint=eastwest;fontColor=#000000;fontStyle=0" parent="Q7NYyZmWe51MbhSKl3cX-49" vertex="1">
          <mxGeometry y="48" width="320" height="122" as="geometry" />
        </mxCell>
        <mxCell id="Q7NYyZmWe51MbhSKl3cX-53" style="rounded=0;orthogonalLoop=1;jettySize=auto;html=1;endArrow=block;endFill=0;endSize=16;strokeWidth=1;edgeStyle=orthogonalEdgeStyle;" parent="1" source="Q7NYyZmWe51MbhSKl3cX-9" target="Q7NYyZmWe51MbhSKl3cX-1" edge="1">
          <mxGeometry relative="1" as="geometry">
            <mxPoint x="730" y="-226" as="sourcePoint" />
            <mxPoint x="890" y="-234" as="targetPoint" />
            <Array as="points">
              <mxPoint x="-600" y="242" />
              <mxPoint x="-160" y="242" />
            </Array>
          </mxGeometry>
        </mxCell>
        <mxCell id="Q7NYyZmWe51MbhSKl3cX-54" style="rounded=0;orthogonalLoop=1;jettySize=auto;html=1;endSize=13;endArrow=block;endFill=0;dashed=1;strokeWidth=1;edgeStyle=orthogonalEdgeStyle;dashPattern=8 8;" parent="1" source="Q7NYyZmWe51MbhSKl3cX-9" target="jbrCTatAsTJZQeUJgzJw-40" edge="1">
          <mxGeometry relative="1" as="geometry">
            <mxPoint x="730" y="-179" as="sourcePoint" />
            <mxPoint x="890" y="-140" as="targetPoint" />
            <Array as="points">
              <mxPoint x="-560" y="282" />
              <mxPoint x="-400" y="282" />
            </Array>
          </mxGeometry>
        </mxCell>
        <mxCell id="Q7NYyZmWe51MbhSKl3cX-55" value="«interface»&lt;br&gt;&lt;b&gt;MouseListener&lt;/b&gt;" style="html=1;whiteSpace=wrap;fillColor=#dae8fc;strokeColor=#6c8ebf;" parent="1" vertex="1">
          <mxGeometry x="-360" y="362" width="160" height="56" as="geometry" />
        </mxCell>
        <mxCell id="Q7NYyZmWe51MbhSKl3cX-56" style="rounded=0;orthogonalLoop=1;jettySize=auto;html=1;endSize=13;endArrow=block;endFill=0;dashed=1;strokeWidth=1;edgeStyle=orthogonalEdgeStyle;dashPattern=8 8;" parent="1" source="Q7NYyZmWe51MbhSKl3cX-9" target="Q7NYyZmWe51MbhSKl3cX-55" edge="1">
          <mxGeometry relative="1" as="geometry">
            <mxPoint x="669" y="92" as="sourcePoint" />
            <mxPoint x="930" y="-92" as="targetPoint" />
            <Array as="points">
              <mxPoint x="-560" y="282" />
              <mxPoint x="-280" y="282" />
            </Array>
          </mxGeometry>
        </mxCell>
        <mxCell id="Q7NYyZmWe51MbhSKl3cX-57" style="rounded=0;orthogonalLoop=1;jettySize=auto;html=1;endArrow=block;endFill=0;endSize=16;strokeWidth=1;edgeStyle=orthogonalEdgeStyle;" parent="1" source="Q7NYyZmWe51MbhSKl3cX-17" target="Q7NYyZmWe51MbhSKl3cX-1" edge="1">
          <mxGeometry relative="1" as="geometry">
            <mxPoint x="648" y="92" as="sourcePoint" />
            <mxPoint x="937" y="-168" as="targetPoint" />
            <Array as="points">
              <mxPoint x="320" y="242" />
              <mxPoint x="-160" y="242" />
            </Array>
          </mxGeometry>
        </mxCell>
        <mxCell id="Q7NYyZmWe51MbhSKl3cX-58" value="&lt;&lt; enum &gt;&gt;&#xa;KnotType" style="swimlane;fontStyle=3;align=center;verticalAlign=top;childLayout=stackLayout;horizontal=1;startSize=40;horizontalStack=0;resizeParent=1;resizeParentMax=0;resizeLast=0;collapsible=1;marginBottom=0;hachureGap=4;pointerEvents=0;sketch=0;strokeColor=#b85450;fillColor=#f8cecc;gradientColor=#ea6b66;" parent="1" vertex="1">
          <mxGeometry x="-1560" y="557" width="320" height="80" as="geometry" />
        </mxCell>
        <mxCell id="Q7NYyZmWe51MbhSKl3cX-60" value="" style="line;strokeWidth=1;fillColor=#f8cecc;align=left;verticalAlign=middle;spacingTop=-1;spacingLeft=3;spacingRight=3;rotatable=0;labelPosition=right;points=[];portConstraint=eastwest;strokeColor=#b85450;gradientColor=#ea6b66;" parent="Q7NYyZmWe51MbhSKl3cX-58" vertex="1">
          <mxGeometry y="40" width="320" height="8" as="geometry" />
        </mxCell>
        <mxCell id="Q7NYyZmWe51MbhSKl3cX-61" value="&lt;u&gt;+ getKnotType()&lt;/u&gt;: KnotType" style="text;strokeColor=none;fillColor=none;align=left;verticalAlign=top;spacingLeft=4;spacingRight=4;overflow=hidden;rotatable=0;points=[[0,0.5],[1,0.5]];portConstraint=eastwest;fontColor=#000000;fontStyle=0;html=1;" parent="Q7NYyZmWe51MbhSKl3cX-58" vertex="1">
          <mxGeometry y="48" width="320" height="32" as="geometry" />
        </mxCell>
        <mxCell id="Q7NYyZmWe51MbhSKl3cX-62" value="EmpathyPanel" style="swimlane;fontStyle=1;align=center;verticalAlign=top;childLayout=stackLayout;horizontal=1;startSize=26;horizontalStack=0;resizeParent=1;resizeParentMax=0;resizeLast=0;collapsible=1;marginBottom=0;hachureGap=4;pointerEvents=0;sketch=0;strokeColor=#9673a6;fillColor=#e1d5e7;" parent="1" vertex="1">
          <mxGeometry x="-120" y="962" width="160" height="34" as="geometry" />
        </mxCell>
        <mxCell id="Q7NYyZmWe51MbhSKl3cX-63" value="" style="line;strokeWidth=1;fillColor=none;align=left;verticalAlign=middle;spacingTop=-1;spacingLeft=3;spacingRight=3;rotatable=0;labelPosition=right;points=[];portConstraint=eastwest;strokeColor=#6C8EBF;fontColor=#5AA9E6;" parent="Q7NYyZmWe51MbhSKl3cX-62" vertex="1">
          <mxGeometry y="26" width="160" height="8" as="geometry" />
        </mxCell>
        <mxCell id="Q7NYyZmWe51MbhSKl3cX-66" style="rounded=0;jumpStyle=arc;jumpSize=25;orthogonalLoop=1;jettySize=auto;html=1;fontSize=24;startArrow=diamond;startFill=0;endArrow=none;endFill=0;startSize=16;endSize=16;targetPerimeterSpacing=0;strokeWidth=1;edgeStyle=orthogonalEdgeStyle;" parent="1" source="3UaBTVDe8wQeoS43e0Al-146" target="Q7NYyZmWe51MbhSKl3cX-1" edge="1">
          <mxGeometry relative="1" as="geometry">
            <mxPoint x="410" y="-156" as="sourcePoint" />
            <mxPoint x="170" y="-167" as="targetPoint" />
            <Array as="points">
              <mxPoint x="-80" y="602" />
              <mxPoint x="-160" y="602" />
            </Array>
          </mxGeometry>
        </mxCell>
        <mxCell id="Q7NYyZmWe51MbhSKl3cX-67" value="&lt;span style=&quot;text-align: left; background-color: rgb(248, 249, 250);&quot;&gt;- content&lt;/span&gt;" style="edgeLabel;html=1;align=center;verticalAlign=middle;resizable=0;points=[];fontSize=12;" parent="Q7NYyZmWe51MbhSKl3cX-66" vertex="1" connectable="0">
          <mxGeometry x="-0.785" y="1" relative="1" as="geometry">
            <mxPoint x="-29" y="-11" as="offset" />
          </mxGeometry>
        </mxCell>
        <mxCell id="Q7NYyZmWe51MbhSKl3cX-68" style="rounded=0;jumpStyle=arc;jumpSize=25;orthogonalLoop=1;jettySize=auto;html=1;fontSize=24;startArrow=diamond;startFill=0;endArrow=none;endFill=0;startSize=16;endSize=16;targetPerimeterSpacing=0;strokeWidth=1;edgeStyle=orthogonalEdgeStyle;" parent="1" source="3UaBTVDe8wQeoS43e0Al-146" target="Q7NYyZmWe51MbhSKl3cX-13" edge="1">
          <mxGeometry relative="1" as="geometry">
            <mxPoint x="420" y="-146" as="sourcePoint" />
            <mxPoint x="180" y="-157" as="targetPoint" />
            <Array as="points">
              <mxPoint y="912" />
            </Array>
          </mxGeometry>
        </mxCell>
        <mxCell id="Q7NYyZmWe51MbhSKl3cX-69" value="&lt;span style=&quot;text-align: left; background-color: rgb(248, 249, 250);&quot;&gt;- imgProcessor&lt;/span&gt;" style="edgeLabel;html=1;align=center;verticalAlign=middle;resizable=0;points=[];fontSize=12;" parent="Q7NYyZmWe51MbhSKl3cX-68" vertex="1" connectable="0">
          <mxGeometry x="-0.785" y="1" relative="1" as="geometry">
            <mxPoint x="13" y="10" as="offset" />
          </mxGeometry>
        </mxCell>
        <mxCell id="Q7NYyZmWe51MbhSKl3cX-70" style="rounded=0;jumpStyle=arc;jumpSize=25;orthogonalLoop=1;jettySize=auto;html=1;fontSize=24;startArrow=diamond;startFill=0;endArrow=none;endFill=0;startSize=16;endSize=16;targetPerimeterSpacing=0;strokeWidth=1;edgeStyle=orthogonalEdgeStyle;" parent="1" source="3UaBTVDe8wQeoS43e0Al-146" target="Q7NYyZmWe51MbhSKl3cX-25" edge="1">
          <mxGeometry relative="1" as="geometry">
            <mxPoint x="430" y="-136" as="sourcePoint" />
            <mxPoint x="190" y="-147" as="targetPoint" />
            <Array as="points">
              <mxPoint x="-80" y="882" />
            </Array>
          </mxGeometry>
        </mxCell>
        <mxCell id="Q7NYyZmWe51MbhSKl3cX-71" value="&lt;span style=&quot;text-align: left; background-color: rgb(248, 249, 250);&quot;&gt;- simAnnealer&lt;/span&gt;" style="edgeLabel;html=1;align=center;verticalAlign=middle;resizable=0;points=[];fontSize=12;" parent="Q7NYyZmWe51MbhSKl3cX-70" vertex="1" connectable="0">
          <mxGeometry x="-0.785" y="1" relative="1" as="geometry">
            <mxPoint x="-11" y="-13" as="offset" />
          </mxGeometry>
        </mxCell>
        <mxCell id="Q7NYyZmWe51MbhSKl3cX-73" style="edgeStyle=orthogonalEdgeStyle;shape=connector;rounded=0;orthogonalLoop=1;jettySize=auto;html=1;labelBackgroundColor=default;fontFamily=Helvetica;fontSize=11;fontColor=default;endArrow=open;endFill=0;targetPerimeterSpacing=0;strokeColor=default;strokeWidth=1;dashed=1;endSize=13;jumpSize=6;dashPattern=8 8;" parent="1" source="3UaBTVDe8wQeoS43e0Al-146" target="Q7NYyZmWe51MbhSKl3cX-62" edge="1">
          <mxGeometry relative="1" as="geometry">
            <mxPoint x="210" y="-102" as="sourcePoint" />
            <mxPoint x="260" y="-212" as="targetPoint" />
            <Array as="points">
              <mxPoint x="40" y="752" />
              <mxPoint x="40" y="752" />
            </Array>
          </mxGeometry>
        </mxCell>
        <mxCell id="Q7NYyZmWe51MbhSKl3cX-74" style="rounded=0;jumpStyle=arc;jumpSize=25;orthogonalLoop=1;jettySize=auto;html=1;fontSize=24;startArrow=diamond;startFill=0;endArrow=none;endFill=0;startSize=16;endSize=16;targetPerimeterSpacing=0;strokeWidth=1;edgeStyle=orthogonalEdgeStyle;" parent="1" source="Q7NYyZmWe51MbhSKl3cX-5" target="Q7NYyZmWe51MbhSKl3cX-49" edge="1">
          <mxGeometry relative="1" as="geometry">
            <mxPoint x="290" y="130" as="sourcePoint" />
            <mxPoint x="810" y="319" as="targetPoint" />
            <Array as="points">
              <mxPoint x="-990" y="652" />
              <mxPoint x="-990" y="652" />
            </Array>
          </mxGeometry>
        </mxCell>
        <mxCell id="Q7NYyZmWe51MbhSKl3cX-75" value="&lt;span style=&quot;text-align: left; background-color: rgb(248, 249, 250);&quot;&gt;- bracelet&lt;/span&gt;" style="edgeLabel;html=1;align=center;verticalAlign=middle;resizable=0;points=[];fontSize=12;" parent="Q7NYyZmWe51MbhSKl3cX-74" vertex="1" connectable="0">
          <mxGeometry x="-0.785" y="1" relative="1" as="geometry">
            <mxPoint x="-5" y="18" as="offset" />
          </mxGeometry>
        </mxCell>
        <mxCell id="Q7NYyZmWe51MbhSKl3cX-76" value="＊" style="edgeLabel;html=1;align=center;verticalAlign=middle;resizable=0;points=[];fontSize=12;" parent="1" vertex="1" connectable="0">
          <mxGeometry x="-980.0043617185397" y="636.9976238760783" as="geometry" />
        </mxCell>
        <mxCell id="Q7NYyZmWe51MbhSKl3cX-77" style="rounded=0;jumpStyle=arc;jumpSize=25;orthogonalLoop=1;jettySize=auto;html=1;fontSize=24;startArrow=diamond;startFill=0;endArrow=none;endFill=0;startSize=16;endSize=16;targetPerimeterSpacing=0;strokeWidth=1;edgeStyle=orthogonalEdgeStyle;" parent="1" source="Q7NYyZmWe51MbhSKl3cX-9" target="Q7NYyZmWe51MbhSKl3cX-5" edge="1">
          <mxGeometry relative="1" as="geometry">
            <mxPoint x="1130" y="342" as="sourcePoint" />
            <mxPoint x="1250" y="322" as="targetPoint" />
            <Array as="points">
              <mxPoint x="-600" y="637" />
            </Array>
          </mxGeometry>
        </mxCell>
        <mxCell id="Q7NYyZmWe51MbhSKl3cX-78" value="&lt;span style=&quot;text-align: left; background-color: rgb(248, 249, 250);&quot;&gt;- bracelet&lt;/span&gt;" style="edgeLabel;html=1;align=center;verticalAlign=middle;resizable=0;points=[];fontSize=12;" parent="Q7NYyZmWe51MbhSKl3cX-77" vertex="1" connectable="0">
          <mxGeometry x="-0.785" y="1" relative="1" as="geometry">
            <mxPoint x="29" y="1" as="offset" />
          </mxGeometry>
        </mxCell>
        <mxCell id="Q7NYyZmWe51MbhSKl3cX-81" style="rounded=0;jumpStyle=arc;jumpSize=25;orthogonalLoop=1;jettySize=auto;html=1;fontSize=24;startArrow=diamond;startFill=0;endArrow=none;endFill=0;startSize=16;endSize=16;targetPerimeterSpacing=0;strokeWidth=1;edgeStyle=orthogonalEdgeStyle;" parent="1" source="Q7NYyZmWe51MbhSKl3cX-17" target="3UaBTVDe8wQeoS43e0Al-54" edge="1">
          <mxGeometry relative="1" as="geometry">
            <mxPoint x="800" y="122" as="sourcePoint" />
            <mxPoint x="899" y="262" as="targetPoint" />
          </mxGeometry>
        </mxCell>
        <mxCell id="Q7NYyZmWe51MbhSKl3cX-82" value="&lt;span style=&quot;text-align: left; background-color: rgb(248, 249, 250);&quot;&gt;- type&lt;/span&gt;" style="edgeLabel;html=1;align=center;verticalAlign=middle;resizable=0;points=[];fontSize=12;" parent="Q7NYyZmWe51MbhSKl3cX-81" vertex="1" connectable="0">
          <mxGeometry x="-0.785" y="1" relative="1" as="geometry">
            <mxPoint x="19" y="21" as="offset" />
          </mxGeometry>
        </mxCell>
        <mxCell id="Q7NYyZmWe51MbhSKl3cX-83" value="AbstractAction" style="swimlane;fontStyle=1;align=center;verticalAlign=top;childLayout=stackLayout;horizontal=1;startSize=26;horizontalStack=0;resizeParent=1;resizeParentMax=0;resizeLast=0;collapsible=1;marginBottom=0;hachureGap=4;pointerEvents=0;sketch=0;strokeColor=#6c8ebf;fillColor=#dae8fc;" parent="1" vertex="1">
          <mxGeometry x="-120" y="340" width="160" height="34" as="geometry" />
        </mxCell>
        <mxCell id="Q7NYyZmWe51MbhSKl3cX-84" value="" style="line;strokeWidth=1;fillColor=none;align=left;verticalAlign=middle;spacingTop=-1;spacingLeft=3;spacingRight=3;rotatable=0;labelPosition=right;points=[];portConstraint=eastwest;strokeColor=#6C8EBF;fontColor=#5AA9E6;" parent="Q7NYyZmWe51MbhSKl3cX-83" vertex="1">
          <mxGeometry y="26" width="160" height="8" as="geometry" />
        </mxCell>
        <mxCell id="Q7NYyZmWe51MbhSKl3cX-85" style="rounded=0;orthogonalLoop=1;jettySize=auto;html=1;endArrow=open;endFill=0;endSize=16;edgeStyle=orthogonalEdgeStyle;" parent="1" source="Q7NYyZmWe51MbhSKl3cX-17" target="Q7NYyZmWe51MbhSKl3cX-83" edge="1">
          <mxGeometry relative="1" as="geometry">
            <mxPoint x="660" y="592" as="sourcePoint" />
            <mxPoint x="730" y="562" as="targetPoint" />
          </mxGeometry>
        </mxCell>
        <mxCell id="Q7NYyZmWe51MbhSKl3cX-86" value="JFileChooser" style="swimlane;fontStyle=1;align=center;verticalAlign=top;childLayout=stackLayout;horizontal=1;startSize=26;horizontalStack=0;resizeParent=1;resizeParentMax=0;resizeLast=0;collapsible=1;marginBottom=0;hachureGap=4;pointerEvents=0;sketch=0;strokeColor=#6c8ebf;fillColor=#dae8fc;" parent="1" vertex="1">
          <mxGeometry x="-120" y="282" width="160" height="34" as="geometry" />
        </mxCell>
        <mxCell id="Q7NYyZmWe51MbhSKl3cX-87" value="" style="line;strokeWidth=1;fillColor=none;align=left;verticalAlign=middle;spacingTop=-1;spacingLeft=3;spacingRight=3;rotatable=0;labelPosition=right;points=[];portConstraint=eastwest;strokeColor=#6C8EBF;fontColor=#5AA9E6;" parent="Q7NYyZmWe51MbhSKl3cX-86" vertex="1">
          <mxGeometry y="26" width="160" height="8" as="geometry" />
        </mxCell>
        <mxCell id="Q7NYyZmWe51MbhSKl3cX-88" style="rounded=0;orthogonalLoop=1;jettySize=auto;html=1;endArrow=open;endFill=0;endSize=16;edgeStyle=orthogonalEdgeStyle;" parent="1" source="Q7NYyZmWe51MbhSKl3cX-17" target="Q7NYyZmWe51MbhSKl3cX-86" edge="1">
          <mxGeometry relative="1" as="geometry">
            <mxPoint x="730" y="530" as="sourcePoint" />
            <mxPoint x="831" y="552" as="targetPoint" />
          </mxGeometry>
        </mxCell>
        <mxCell id="Q7NYyZmWe51MbhSKl3cX-89" style="rounded=0;orthogonalLoop=1;jettySize=auto;html=1;endArrow=open;endFill=0;endSize=16;edgeStyle=orthogonalEdgeStyle;" parent="1" source="Q7NYyZmWe51MbhSKl3cX-21" target="Q7NYyZmWe51MbhSKl3cX-17" edge="1">
          <mxGeometry relative="1" as="geometry">
            <mxPoint x="740" y="682" as="sourcePoint" />
            <mxPoint x="841" y="704" as="targetPoint" />
            <Array as="points">
              <mxPoint x="-160" y="202" />
              <mxPoint x="480" y="202" />
              <mxPoint x="480" y="330" />
            </Array>
          </mxGeometry>
        </mxCell>
        <mxCell id="Q7NYyZmWe51MbhSKl3cX-90" style="rounded=0;orthogonalLoop=1;jettySize=auto;html=1;endArrow=open;endFill=0;endSize=16;edgeStyle=orthogonalEdgeStyle;" parent="1" source="Q7NYyZmWe51MbhSKl3cX-21" target="Q7NYyZmWe51MbhSKl3cX-5" edge="1">
          <mxGeometry relative="1" as="geometry">
            <mxPoint x="750" y="692" as="sourcePoint" />
            <mxPoint x="851" y="714" as="targetPoint" />
            <Array as="points">
              <mxPoint x="-160" y="202" />
              <mxPoint x="-800" y="202" />
            </Array>
          </mxGeometry>
        </mxCell>
        <mxCell id="Q7NYyZmWe51MbhSKl3cX-91" style="rounded=0;orthogonalLoop=1;jettySize=auto;html=1;endArrow=open;endFill=0;endSize=16;edgeStyle=orthogonalEdgeStyle;" parent="1" source="Q7NYyZmWe51MbhSKl3cX-21" target="3UaBTVDe8wQeoS43e0Al-146" edge="1">
          <mxGeometry relative="1" as="geometry">
            <mxPoint x="760" y="702" as="sourcePoint" />
            <mxPoint x="520" y="82" as="targetPoint" />
            <Array as="points">
              <mxPoint x="-160" y="202" />
              <mxPoint x="480" y="202" />
              <mxPoint x="480" y="762" />
            </Array>
          </mxGeometry>
        </mxCell>
        <mxCell id="Q7NYyZmWe51MbhSKl3cX-92" style="rounded=0;orthogonalLoop=1;jettySize=auto;html=1;endArrow=open;endFill=0;endSize=16;edgeStyle=orthogonalEdgeStyle;" parent="1" source="Q7NYyZmWe51MbhSKl3cX-21" target="Q7NYyZmWe51MbhSKl3cX-9" edge="1">
          <mxGeometry relative="1" as="geometry">
            <mxPoint x="770" y="712" as="sourcePoint" />
            <mxPoint x="660" y="142" as="targetPoint" />
            <Array as="points">
              <mxPoint x="-160" y="202" />
              <mxPoint x="-640" y="202" />
            </Array>
          </mxGeometry>
        </mxCell>
        <mxCell id="Q7NYyZmWe51MbhSKl3cX-93" style="rounded=0;jumpStyle=arc;jumpSize=25;orthogonalLoop=1;jettySize=auto;html=1;fontSize=24;startArrow=diamond;startFill=0;endArrow=none;endFill=0;startSize=16;endSize=16;targetPerimeterSpacing=0;strokeWidth=1;edgeStyle=orthogonalEdgeStyle;" parent="1" source="Q7NYyZmWe51MbhSKl3cX-25" target="Q7NYyZmWe51MbhSKl3cX-5" edge="1">
          <mxGeometry relative="1" as="geometry">
            <mxPoint x="730" y="-156" as="sourcePoint" />
            <mxPoint x="1250" y="15" as="targetPoint" />
            <Array as="points">
              <mxPoint x="-800" y="897" />
            </Array>
          </mxGeometry>
        </mxCell>
        <mxCell id="Q7NYyZmWe51MbhSKl3cX-94" value="&lt;span style=&quot;text-align: left; background-color: rgb(248, 249, 250);&quot;&gt;bracelet&lt;/span&gt;" style="edgeLabel;html=1;align=center;verticalAlign=middle;resizable=0;points=[];fontSize=12;" parent="Q7NYyZmWe51MbhSKl3cX-93" vertex="1" connectable="0">
          <mxGeometry x="-0.785" y="1" relative="1" as="geometry">
            <mxPoint x="-12" y="14" as="offset" />
          </mxGeometry>
        </mxCell>
        <mxCell id="Q7NYyZmWe51MbhSKl3cX-96" style="rounded=0;orthogonalLoop=1;jettySize=auto;html=1;endArrow=block;endFill=0;endSize=16;strokeWidth=1;edgeStyle=orthogonalEdgeStyle;" parent="1" source="Q7NYyZmWe51MbhSKl3cX-29" target="Q7NYyZmWe51MbhSKl3cX-49" edge="1">
          <mxGeometry relative="1" as="geometry">
            <mxPoint x="1550" y="587" as="sourcePoint" />
            <mxPoint x="1540" y="457" as="targetPoint" />
            <Array as="points">
              <mxPoint x="-1400" y="157" />
              <mxPoint x="-1000" y="157" />
            </Array>
          </mxGeometry>
        </mxCell>
        <mxCell id="Q7NYyZmWe51MbhSKl3cX-97" style="rounded=0;jumpStyle=arc;jumpSize=25;orthogonalLoop=1;jettySize=auto;html=1;fontSize=24;startArrow=diamond;startFill=0;endArrow=none;endFill=0;startSize=16;endSize=16;targetPerimeterSpacing=0;strokeWidth=1;edgeStyle=orthogonalEdgeStyle;" parent="1" source="Q7NYyZmWe51MbhSKl3cX-29" target="Q7NYyZmWe51MbhSKl3cX-49" edge="1">
          <mxGeometry relative="1" as="geometry">
            <mxPoint x="1661" y="557" as="sourcePoint" />
            <mxPoint x="-190" y="357.00000000000006" as="targetPoint" />
            <Array as="points">
              <mxPoint x="-1200" y="457" />
              <mxPoint x="-1200" y="402" />
            </Array>
          </mxGeometry>
        </mxCell>
        <mxCell id="Q7NYyZmWe51MbhSKl3cX-98" value="leftChild" style="edgeLabel;html=1;align=center;verticalAlign=middle;resizable=0;points=[];fontSize=12;" parent="Q7NYyZmWe51MbhSKl3cX-97" vertex="1" connectable="0">
          <mxGeometry x="-0.785" y="1" relative="1" as="geometry">
            <mxPoint x="-5" y="-30" as="offset" />
          </mxGeometry>
        </mxCell>
        <mxCell id="Q7NYyZmWe51MbhSKl3cX-100" style="rounded=0;jumpStyle=arc;jumpSize=25;orthogonalLoop=1;jettySize=auto;html=1;fontSize=24;startArrow=diamond;startFill=0;endArrow=none;endFill=0;startSize=16;endSize=16;targetPerimeterSpacing=0;strokeWidth=1;edgeStyle=orthogonalEdgeStyle;" parent="1" source="Q7NYyZmWe51MbhSKl3cX-29" target="Q7NYyZmWe51MbhSKl3cX-49" edge="1">
          <mxGeometry relative="1" as="geometry">
            <mxPoint x="1570" y="670.0000000000001" as="sourcePoint" />
            <mxPoint x="1484" y="687.0000000000001" as="targetPoint" />
            <Array as="points">
              <mxPoint x="-1200" y="487" />
              <mxPoint x="-1200" y="402" />
            </Array>
          </mxGeometry>
        </mxCell>
        <mxCell id="Q7NYyZmWe51MbhSKl3cX-101" value="rightChild" style="edgeLabel;html=1;align=center;verticalAlign=middle;resizable=0;points=[];fontSize=12;" parent="Q7NYyZmWe51MbhSKl3cX-100" vertex="1" connectable="0">
          <mxGeometry x="-0.785" y="1" relative="1" as="geometry">
            <mxPoint x="22" y="19" as="offset" />
          </mxGeometry>
        </mxCell>
        <mxCell id="Q7NYyZmWe51MbhSKl3cX-102" style="rounded=0;jumpStyle=arc;jumpSize=25;orthogonalLoop=1;jettySize=auto;html=1;fontSize=24;startArrow=diamond;startFill=0;endArrow=none;endFill=0;startSize=16;endSize=16;targetPerimeterSpacing=0;strokeWidth=1;edgeStyle=orthogonalEdgeStyle;" parent="1" source="Q7NYyZmWe51MbhSKl3cX-29" target="Q7NYyZmWe51MbhSKl3cX-58" edge="1">
          <mxGeometry relative="1" as="geometry">
            <mxPoint x="1570" y="670.0000000000001" as="sourcePoint" />
            <mxPoint x="1484" y="687.0000000000001" as="targetPoint" />
            <Array as="points">
              <mxPoint x="-1560" y="587" />
              <mxPoint x="-1560" y="587" />
            </Array>
          </mxGeometry>
        </mxCell>
        <mxCell id="Q7NYyZmWe51MbhSKl3cX-103" value="dir" style="edgeLabel;html=1;align=center;verticalAlign=middle;resizable=0;points=[];fontSize=12;" parent="Q7NYyZmWe51MbhSKl3cX-102" vertex="1" connectable="0">
          <mxGeometry x="-0.785" y="1" relative="1" as="geometry">
            <mxPoint x="-21" y="6" as="offset" />
          </mxGeometry>
        </mxCell>
        <mxCell id="Q7NYyZmWe51MbhSKl3cX-104" style="rounded=0;jumpStyle=arc;jumpSize=25;orthogonalLoop=1;jettySize=auto;html=1;fontSize=24;startArrow=diamond;startFill=0;endArrow=none;endFill=0;startSize=16;endSize=16;targetPerimeterSpacing=0;strokeWidth=1;edgeStyle=orthogonalEdgeStyle;" parent="1" source="Q7NYyZmWe51MbhSKl3cX-33" target="Q7NYyZmWe51MbhSKl3cX-49" edge="1">
          <mxGeometry relative="1" as="geometry">
            <mxPoint x="1380" y="1042" as="sourcePoint" />
            <mxPoint x="1294" y="1059" as="targetPoint" />
            <Array as="points">
              <mxPoint x="-1200" y="402" />
            </Array>
          </mxGeometry>
        </mxCell>
        <mxCell id="Q7NYyZmWe51MbhSKl3cX-105" value="child" style="edgeLabel;html=1;align=center;verticalAlign=middle;resizable=0;points=[];fontSize=12;" parent="Q7NYyZmWe51MbhSKl3cX-104" vertex="1" connectable="0">
          <mxGeometry x="-0.785" y="1" relative="1" as="geometry">
            <mxPoint x="-21" y="-7" as="offset" />
          </mxGeometry>
        </mxCell>
        <mxCell id="Q7NYyZmWe51MbhSKl3cX-106" style="rounded=0;orthogonalLoop=1;jettySize=auto;html=1;endArrow=block;endFill=0;endSize=16;strokeWidth=1;edgeStyle=orthogonalEdgeStyle;" parent="1" source="Q7NYyZmWe51MbhSKl3cX-33" target="Q7NYyZmWe51MbhSKl3cX-49" edge="1">
          <mxGeometry relative="1" as="geometry">
            <mxPoint x="1581" y="715.0000000000001" as="sourcePoint" />
            <mxPoint x="1490" y="736.0000000000001" as="targetPoint" />
            <Array as="points">
              <mxPoint x="-1200" y="157" />
              <mxPoint x="-1000" y="157" />
            </Array>
          </mxGeometry>
        </mxCell>
        <mxCell id="Q7NYyZmWe51MbhSKl3cX-107" value="" style="rounded=0;orthogonalLoop=1;jettySize=auto;html=1;endArrow=openThin;endFill=0;endSize=16;edgeStyle=orthogonalEdgeStyle;" parent="1" source="Q7NYyZmWe51MbhSKl3cX-25" target="elMguTT_wr_vLUgwcF6g-1" edge="1">
          <mxGeometry relative="1" as="geometry">
            <mxPoint x="-1160" y="869" as="targetPoint" />
            <mxPoint x="1210" y="-78" as="sourcePoint" />
            <Array as="points">
              <mxPoint x="-240" y="922" />
            </Array>
          </mxGeometry>
        </mxCell>
        <mxCell id="Q7NYyZmWe51MbhSKl3cX-112" style="rounded=0;orthogonalLoop=1;jettySize=auto;html=1;endArrow=open;endFill=0;endSize=16;edgeStyle=orthogonalEdgeStyle;" parent="1" source="3UaBTVDe8wQeoS43e0Al-146" target="3UaBTVDe8wQeoS43e0Al-54" edge="1">
          <mxGeometry relative="1" as="geometry">
            <mxPoint x="90" y="-15" as="sourcePoint" />
            <mxPoint x="570" y="452" as="targetPoint" />
            <Array as="points">
              <mxPoint x="280" y="722" />
            </Array>
          </mxGeometry>
        </mxCell>
      </root>
    </mxGraphModel>
  </diagram>
</mxfile>
